<svg xmlns="http://www.w3.org/2000/svg" enable-background="new 0 0 66 66" viewBox="0 0 66 66"><path d="M13.9 44.5c-2.8 0-5.1-2.3-5.1-5.1V13H4.2C2.4 13 1 14.4 1 16.2v32.8c0 1.8 1.4 3.2 3.2 3.2h1.7V60c0 2.2 2.5 3.5 4.3 2.1l12.4-9.8h19.2c1.6 0 2.9-1.3 2.9-2.9v-3.3l-2-1.6H13.9zM49.5 20.9c.2-.4.6-.7 1.1-.6.5-.3.6-1.7.2-2-.3-.1-.5-.3-.6-.5l-1.4-2.1c-2.8 1.5-5.6 1.5-8.4 0l-1.5 2.1c-.1.2-.3.4-.5.4-.3.3-.2 1.7.2 2 0 0 0 0 0 0 .5-.1.9.2 1.1.6C41.7 26.6 47.4 26.6 49.5 20.9zM42.6 26.8L41.8 28c.3.8 1 2 2.7 2.5 1.7-.5 2.5-1.7 2.7-2.5l-.8-1.2C45.2 27.2 43.9 27.2 42.6 26.8z"/><path d="M61.8,3.3H13.9c-1.8,0-3.2,1.4-3.2,3.2v32.8c0,1.8,1.4,3.2,3.2,3.2h29.5l12.4,9.8c1.7,1.4,4.3,0.1,4.3-2.1v-7.8h1.7
		c1.8,0,3.2-1.4,3.2-3.2V6.5C65,4.7,63.6,3.3,61.8,3.3z M30.1,37.7H16.5c-0.5,0-1-0.4-1-1s0.4-1,1-1h13.6c0.5,0,1,0.4,1,1
		S30.7,37.7,30.1,37.7z M30.1,30.8H16.5c-0.5,0-1-0.4-1-1c0-0.5,0.4-1,1-1h13.6c0.5,0,1,0.4,1,1C31.1,30.4,30.7,30.8,30.1,30.8z
		 M30.1,23.9H16.5c-0.5,0-1-0.4-1-1s0.4-1,1-1h13.6c0.5,0,1,0.4,1,1S30.7,23.9,30.1,23.9z M30.1,17H16.5c-0.5,0-1-0.4-1-1
		c0-0.5,0.4-1,1-1h13.6c0.5,0,1,0.4,1,1C31.1,16.6,30.7,17,30.1,17z M30.1,10.1H16.5c-0.5,0-1-0.4-1-1c0-0.5,0.4-1,1-1h13.6
		c0.5,0,1,0.4,1,1C31.1,9.7,30.7,10.1,30.1,10.1z M55.1,36c0,0.5-0.4,1-1,1H34.9c-0.5,0-1-0.4-1-1v-4.9c0-2.3,1.9-4.2,4.2-4.2h2
		l0.7-1c-1.2-0.9-2.2-2.1-2.9-3.7c-1.9-0.6-2.5-4-0.9-5.3c0.2-5.5,3.9-7.9,7.5-7.9c3.6,0,7.2,2.5,7.5,7.9c1.6,1.3,1,4.8-0.9,5.3
		c-0.7,1.6-1.7,2.9-2.9,3.7l0.6,1h2.1c2.3,0,4.2,1.9,4.2,4.2V36z"/><path d="M48.5 13.6c.2-.1.4-.2.7-.1-.9-1.7-2.6-2.7-4.6-2.7-2.1 0-3.7 1-4.6 2.7.2 0 .5 0 .7.1C43.2 15.3 45.8 15.3 48.5 13.6zM50.9 28.8H49c-.5 1.3-1.7 3-4.2 3.7 0 0 0 0 0 0 0 0 0 0 0 0-.1 0-.2 0-.2 0 0 0 0 0 0 0l0 0 0 0c0 0 0 0 0 0-.1 0-.2 0-.2 0 0 0 0 0 0 0 0 0 0 0 0 0-2.5-.7-3.7-2.4-4.2-3.7h-1.8c-1.3 0-2.3 1-2.3 2.3v4h17.2v-4C53.1 29.8 52.1 28.8 50.9 28.8z"/></svg>